<svg width="102" height="62" viewBox="0 0 102 62" fill="none" xmlns="http://www.w3.org/2000/svg">
<path d="M99.7298 46.3984C99.7298 20.831 79.0018 0.103027 53.4345 0.103027C27.8671 0.103027 7.13916 20.831 7.13916 46.3984C7.13916 49.3626 7.4193 52.2622 7.95349 55.0711C8.3448 57.1286 10.204 58.5277 12.2985 58.5277H94.5698C96.6645 58.5277 98.524 57.1282 98.9154 55.0703C99.4496 52.2611 99.7298 49.3628 99.7298 46.3984Z" fill="#F7F5F2"/>
<path d="M74.2485 19.687C74.2485 18.7337 75.0213 17.9609 75.9746 17.9609H87.0086C87.1757 17.9609 87.336 18.0273 87.4541 18.1455L92.4922 23.1836C92.6104 23.3018 92.6768 23.4621 92.6768 23.6292V39.432C92.6768 40.3853 91.904 41.1581 90.9508 41.1581H75.9746C75.0213 41.1581 74.2485 40.3853 74.2485 39.432V19.687Z" fill="#CFE3FC"/>
<path fill-rule="evenodd" clip-rule="evenodd" d="M90.9503 42.4184H75.9741C74.3248 42.4184 72.9878 41.0814 72.9878 39.4321V19.687C72.9878 18.0377 74.3248 16.7007 75.9741 16.7007H87.0081C87.5095 16.7007 87.9903 16.8999 88.3449 17.2544L93.3829 22.2925C93.7375 22.647 93.9366 23.1278 93.9366 23.6292V39.4321C93.9366 41.0814 92.5996 42.4184 90.9503 42.4184ZM75.9741 17.961C75.0209 17.961 74.2481 18.7338 74.2481 19.687V39.4321C74.2481 40.3854 75.0209 41.1581 75.9741 41.1581H90.9503C91.9036 41.1581 92.6763 40.3854 92.6763 39.4321V23.6292C92.6763 23.4621 92.61 23.3018 92.4918 23.1836L87.4537 18.1455C87.3355 18.0274 87.1752 17.961 87.0081 17.961H75.9741Z" fill="white"/>
<path d="M77.6333 36.8087C77.6333 36.2485 78.0874 35.7944 78.6475 35.7944H88.6652C89.2253 35.7944 89.6794 36.2485 89.6794 36.8087C89.6794 37.3688 89.2253 37.8229 88.6652 37.8229H78.6475C78.0874 37.8229 77.6333 37.3688 77.6333 36.8087Z" fill="#87B8F7"/>
<path d="M77.6333 33.4353C77.6333 32.8752 78.0874 32.4211 78.6475 32.4211H88.6652C89.2253 32.4211 89.6794 32.8752 89.6794 33.4353C89.6794 33.9955 89.2253 34.4495 88.6652 34.4495H78.6475C78.0874 34.4495 77.6333 33.9955 77.6333 33.4353Z" fill="#87B8F7"/>
<path d="M77.6333 26.6895C77.6333 26.1294 78.0874 25.6753 78.6475 25.6753H88.6652C89.2253 25.6753 89.6794 26.1294 89.6794 26.6895C89.6794 27.2497 89.2253 27.7038 88.6652 27.7038H78.6475C78.0874 27.7038 77.6333 27.2497 77.6333 26.6895Z" fill="#87B8F7"/>
<path d="M77.6333 30.0624C77.6333 29.5022 78.0874 29.0481 78.6475 29.0481H88.6652C89.2253 29.0481 89.6794 29.5022 89.6794 30.0624C89.6794 30.6225 89.2254 31.0766 88.6652 31.0766H78.6475C78.0874 31.0766 77.6333 30.6225 77.6333 30.0624Z" fill="#87B8F7"/>
<path d="M88.9553 23.1597C88.147 23.1597 87.4917 22.5044 87.4917 21.6961L87.4917 18.1834L92.468 23.1597L88.9553 23.1597Z" fill="#87B8F7"/>
<path fill-rule="evenodd" clip-rule="evenodd" d="M91.3531 39.4732C91.7715 38.5724 92.6738 37.9956 93.6689 37.9956H99.4465C100.85 37.9956 102 39.1312 102 40.5436V56.7325C102 58.1429 100.856 59.2805 99.4465 59.2805H78.369C78.3641 59.2805 78.359 59.2805 78.3538 59.2804H78.1985C76.9271 59.2804 75.8552 58.3433 75.675 57.0913C75.6749 57.0909 75.6749 57.0905 75.6748 57.0902L74.208 46.9872C74.0322 45.7713 74.7374 44.6462 75.8154 44.2311V43.2751C75.8154 41.8647 76.9597 40.7271 78.369 40.7271H90.5171C90.679 40.7271 90.8183 40.6329 90.8784 40.5013L90.8793 40.4992L91.3531 39.4732ZM76.8912 45.138H76.7315C75.8313 45.138 75.1436 45.9395 75.2728 46.8332L76.7398 56.9373C76.844 57.6633 77.465 58.2045 78.1985 58.2045H78.3574L78.369 58.2046H99.4465C100.265 58.2046 100.924 57.5457 100.924 56.7325V40.5436C100.924 39.7304 100.261 39.0715 99.4465 39.0715H93.6689C93.0928 39.0715 92.571 39.4051 92.3288 39.9264L91.8571 40.9481C91.6192 41.4694 91.0932 41.803 90.5171 41.803H78.369C77.5508 41.803 76.8912 42.4619 76.8912 43.2751V45.138Z" fill="white"/>
<path d="M99.4505 58.2044H78.3689C77.5549 58.2044 76.8911 57.5455 76.8911 56.7323V43.2749C76.8911 42.4617 77.5507 41.8028 78.3689 41.8028H90.5169C91.093 41.8028 91.619 41.4692 91.857 40.9479L92.3287 39.9262C92.5708 39.4049 93.0927 39.0713 93.6688 39.0713H99.4464C100.26 39.0713 100.924 39.7302 100.924 40.5434V56.7323C100.924 57.5455 100.265 58.2044 99.4464 58.2044H99.4505Z" fill="#87B8F7"/>
<path d="M99.4118 58.2047L78.1249 58.2047C77.3914 58.2047 76.7704 57.6634 76.6662 56.9375L75.1992 46.8334C75.07 45.9396 75.7577 45.1382 76.6579 45.1382L97.9448 45.1382C98.6783 45.1382 99.2993 45.6795 99.4035 46.4054L100.871 56.5095C101 57.4033 100.312 58.2047 99.4118 58.2047Z" fill="#CFE3FC"/>
<path d="M16.7617 2.42432L16.9912 2.43311C17.2232 2.44973 17.4746 2.49324 17.707 2.56885L17.708 2.56689L30.0996 6.35107L30.1016 6.35205L30.334 6.43408C31.4733 6.88301 32.2695 7.94349 32.2695 9.18701V15.0835C32.2695 24.2043 27.252 32.7646 19.1309 37.6392L18.3359 38.0991C17.8779 38.3542 17.3083 38.5024 16.7598 38.5024C16.2797 38.5024 15.7837 38.3892 15.3604 38.1899L15.1836 38.0991C6.59622 33.3161 1.25 24.4983 1.25 15.0835V9.18701C1.25008 7.86059 2.15606 6.74185 3.41797 6.35205L3.41992 6.35107L15.8115 2.56689V2.56885C16.1231 2.46728 16.4683 2.4254 16.7559 2.42432H16.7617Z" fill="#16A761" stroke="white" stroke-width="1.49976"/>
<path d="M21.0063 16.0302V14.3098C21.0063 11.9707 19.2199 10.2759 16.7564 10.2759C14.2929 10.2759 12.5102 11.9744 12.5102 14.3098V16.0302C11.423 16.4549 10.6543 17.4761 10.6543 18.6695V22.8205C10.6543 24.3945 11.9904 25.6721 13.6303 25.6721H19.8898C21.5297 25.6721 22.8658 24.3945 22.8658 22.8205V18.6695C22.8658 17.4761 22.0971 16.4549 21.0099 16.0302H21.0063ZM16.7564 11.773C18.3414 11.773 19.4469 12.8163 19.4469 14.3098V15.8179H14.0732V14.3098C14.0732 12.8163 15.1787 11.773 16.7564 11.773ZM17.5251 21.1952L18.0815 22.5387C18.1657 22.7363 18.0046 22.9523 17.7704 22.9523H15.7424C15.5118 22.9523 15.3508 22.74 15.4313 22.5387L15.9987 21.1952C16.0499 21.0744 15.9987 20.939 15.8925 20.8548C15.7424 20.7377 15.4057 20.4192 15.4057 19.7896C15.4057 19.16 15.8596 18.5194 16.7564 18.5194C17.6532 18.5194 18.1071 19.1527 18.1035 19.7896C18.1035 20.4192 17.7704 20.7377 17.6203 20.8548C17.5141 20.939 17.4702 21.0744 17.5214 21.1989L17.5251 21.1952Z" fill="white"/>
<path d="M60.689 60.1484H69.0868V61.3968C69.0868 61.6729 68.863 61.8967 68.5869 61.8967H61.1889C60.9128 61.8967 60.689 61.6729 60.689 61.3968V60.1484Z" fill="#242424"/>
<path d="M33.6782 60.1484H42.0761V61.3968C42.0761 61.6729 41.8523 61.8967 41.5762 61.8967H34.1781C33.902 61.8967 33.6782 61.6729 33.6782 61.3968V60.1484Z" fill="#242424"/>
<rect x="26.4425" y="9.8571" width="49.7844" height="49.5144" rx="2.49959" fill="#D8C7A9" stroke="#242424" stroke-width="1.99967"/>
<rect x="31.52" y="14.7866" width="39.6553" height="39.6553" rx="1.49976" fill="#808080"/>
<rect x="68.0571" y="19.7847" width="3.1181" height="4.9266" fill="#464646"/>
<rect x="68.0571" y="28.3008" width="3.1181" height="4.9266" fill="#464646"/>
<rect x="68.0571" y="36.8169" width="3.1181" height="4.9266" fill="#464646"/>
<rect x="68.0571" y="45.333" width="3.1181" height="4.9266" fill="#464646"/>
<rect x="32.4199" y="15.6865" width="37.8555" height="37.8555" rx="0.999837" fill="#D8C7A9"/>
<rect x="31.2544" y="39.2974" width="1.58506" height="11.1051" rx="0.79253" fill="#DDD8CD"/>
<rect x="31.1538" y="21.0693" width="1.58506" height="11.1051" rx="0.79253" fill="#DDD8CD"/>
<circle cx="60.1247" cy="44.0881" r="6.62903" fill="white" stroke="#D8C7A9" stroke-width="0.999837"/>
<path d="M60.1377 37.7739V50.4022" stroke="#D8C7A9" stroke-width="0.999837"/>
<path d="M56.981 38.6201L63.2951 49.5565" stroke="#D8C7A9" stroke-width="0.999837"/>
<path d="M54.6694 40.9312L65.6059 47.2453" stroke="#D8C7A9" stroke-width="0.999837"/>
<path d="M66.4521 44.0884L53.8239 44.0884" stroke="#D8C7A9" stroke-width="0.999837"/>
<path d="M65.606 40.9312L54.6695 47.2453" stroke="#D8C7A9" stroke-width="0.999837"/>
<path d="M63.2949 38.6201L56.9808 49.5565" stroke="#D8C7A9" stroke-width="0.999837"/>
<circle cx="60.1249" cy="44.0882" r="3.73432" fill="white" stroke="#D8C7A9" stroke-width="0.999837"/>
<circle cx="46.4691" cy="28.9652" r="9.06838" stroke="white" stroke-width="1.99967"/>
<circle cx="46.469" cy="28.9656" r="2.46756" fill="white"/>
<rect x="45.7114" y="19.9199" width="1.51449" height="7.32414" fill="white"/>
<rect x="37.5864" y="29.5601" width="1.51449" height="7.32414" transform="rotate(-90 37.5864 29.5601)" fill="white"/>
<rect x="45.7114" y="30.3608" width="1.51449" height="7.32414" fill="white"/>
<rect x="48.0273" y="29.5601" width="1.51449" height="7.32414" transform="rotate(-90 48.0273 29.5601)" fill="white"/>
</svg>
